<svg width="801" height="560" viewBox="0 0 801 560" fill="none" xmlns="http://www.w3.org/2000/svg">
<path d="M5.02656 77.0938L351.359 352.947C353.827 355.027 376.08 373.333 400 373.333C424.027 373.333 446.48 355.706 448.894 353.747L794.987 77.0797C798.161 74.5469 800 70.7203 800 66.6672C800 29.9063 770.094 0 733.333 0H66.6672C29.9062 0 0 29.9063 0 66.6672C0 70.7328 1.85313 74.5594 5.02656 77.0938ZM66.6672 26.6672H733.334C753.334 26.6672 769.961 41.4266 772.881 60.6141L432.186 332.959C427.439 336.772 412.386 346.666 400 346.666C387.986 346.666 373.267 336.506 368.306 332.345L27.1203 60.6C30.0531 41.4141 46.6672 26.6672 66.6672 26.6672Z" fill="black"/>
<path d="M245.094 309.52L58.4264 456.186C52.6404 460.733 51.6404 469.119 56.1858 474.906C58.8123 478.253 62.7186 480 66.6654 480C69.5592 480 72.4654 479.067 74.9061 477.147L261.573 330.48C267.359 325.933 268.361 317.547 263.814 311.76C259.267 305.96 250.88 304.974 245.094 309.52Z" fill="black"/>
<path d="M554.906 309.52C549.12 304.974 540.733 305.974 536.186 311.761C531.639 317.549 532.639 325.934 538.427 330.481L725.094 477.148C727.534 479.069 730.441 480.002 733.32 480.002C737.267 480.002 741.187 478.255 743.814 474.908C748.361 469.122 747.361 460.734 741.573 456.188L554.906 309.52Z" fill="black"/>
<path d="M786.667 120C779.308 120 773.334 125.973 773.334 133.333V493.333C773.334 515.386 755.388 533.333 733.334 533.333H66.6672C44.6141 533.333 26.6672 515.386 26.6672 493.333V133.333C26.6672 125.973 20.6938 120 13.3344 120C5.975 120 0 125.973 0 133.333V493.333C0 530.094 29.9062 560 66.6672 560H733.334C770.094 560 800.002 530.094 800.002 493.333V133.333C800 125.973 794.027 120 786.667 120Z" fill="black"/>
</svg>
