<svg width="601" height="683" viewBox="0 0 601 683" fill="none" xmlns="http://www.w3.org/2000/svg">
<path d="M281.667 0.800144C238.733 6.13348 202.867 23.6001 173 53.8668C146.467 80.6668 131.267 109.2 123.4 146.667C120.2 162.4 120.2 197.6 123.4 213.333C131.267 250.8 146.6 279.467 173 306.133C199.8 333.2 229.133 349.067 267 356.933C282.6 360.133 317.667 360.133 333.933 356.933C369.933 349.733 399.8 333.733 426.467 307.333C453.4 280.8 469.4 251.2 477.267 213.333C480.467 197.6 480.467 162.4 477.267 146.667C472.067 122 462.6 99.2001 449 78.6668C440.6 66.0001 414.6 39.8668 402.2 31.7335C380.733 17.4668 357.533 7.73348 334.733 3.33348C323.933 1.20014 291 -0.399856 281.667 0.800144ZM332.333 43.7335C358.733 50.6668 381 63.2001 399.133 81.2001C417.133 99.2001 429.267 120.8 436.733 148C440.6 162.533 440.6 197.467 436.733 212C429.267 239.2 417.133 260.8 399.133 278.8C381.133 296.8 359.533 308.933 332.333 316.4C317.8 320.267 282.867 320.267 268.333 316.4C241.133 308.933 219.533 296.8 201.533 278.8C150.067 227.2 146.733 145.467 193.933 89.3335C214.333 65.0668 247.8 46.2668 279 41.4668C292.067 39.4668 320.467 40.6668 332.333 43.7335Z" fill="black"/>
<path d="M228.733 402.134C154.067 411.2 86.7333 453.467 43.4 518.667C17.9333 556.8 3.39997 601.867 0.866641 650C0.0666413 664.8 0.199975 666.534 2.86664 671.734C4.73331 675.467 7.39997 678.134 11 680C16.2 682.667 18.2 682.667 300.333 682.667C582.467 682.667 584.467 682.667 589.667 680C593.267 678.134 595.933 675.467 597.8 671.734C600.467 666.534 600.6 664.8 599.8 650C596.333 584.267 571.267 526.667 525.667 479.467C482.467 434.8 426.733 407.6 365.8 401.334C345.667 399.334 247.267 399.867 228.733 402.134ZM363.667 441.334C452.067 451.467 526.2 513.734 550.867 598.8C554.867 612.267 559 633.2 559 639.467V642.667H300.333H41.6666V638.8C41.6666 631.6 47.1333 606.534 51.5333 592.8C66.0666 548.534 93.8 510.4 131.933 482C145.533 471.867 175.667 456.4 193 450.8C206.2 446.4 221.8 443.067 235.933 441.467C249.533 439.867 349.8 439.867 363.667 441.334Z" fill="black"/>
</svg>
