<svg width="0" height="0" class="d-none">
  <symbol fill="none" xmlns="http://www.w3.org/2000/svg" viewBox="0 0 601 683" id="user-icon">
    <path d="M281.667 0.800144C238.733 6.13348 202.867 23.6001 173 53.8668C146.467 80.6668 131.267 109.2 123.4 146.667C120.2 162.4 120.2 197.6 123.4 213.333C131.267 250.8 146.6 279.467 173 306.133C199.8 333.2 229.133 349.067 267 356.933C282.6 360.133 317.667 360.133 333.933 356.933C369.933 349.733 399.8 333.733 426.467 307.333C453.4 280.8 469.4 251.2 477.267 213.333C480.467 197.6 480.467 162.4 477.267 146.667C472.067 122 462.6 99.2001 449 78.6668C440.6 66.0001 414.6 39.8668 402.2 31.7335C380.733 17.4668 357.533 7.73348 334.733 3.33348C323.933 1.20014 291 -0.399856 281.667 0.800144ZM332.333 43.7335C358.733 50.6668 381 63.2001 399.133 81.2001C417.133 99.2001 429.267 120.8 436.733 148C440.6 162.533 440.6 197.467 436.733 212C429.267 239.2 417.133 260.8 399.133 278.8C381.133 296.8 359.533 308.933 332.333 316.4C317.8 320.267 282.867 320.267 268.333 316.4C241.133 308.933 219.533 296.8 201.533 278.8C150.067 227.2 146.733 145.467 193.933 89.3335C214.333 65.0668 247.8 46.2668 279 41.4668C292.067 39.4668 320.467 40.6668 332.333 43.7335Z" fill="currentColor"></path>
    <path d="M228.733 402.134C154.067 411.2 86.7333 453.467 43.4 518.667C17.9333 556.8 3.39997 601.867 0.866641 650C0.0666413 664.8 0.199975 666.534 2.86664 671.734C4.73331 675.467 7.39997 678.134 11 680C16.2 682.667 18.2 682.667 300.333 682.667C582.467 682.667 584.467 682.667 589.667 680C593.267 678.134 595.933 675.467 597.8 671.734C600.467 666.534 600.6 664.8 599.8 650C596.333 584.267 571.267 526.667 525.667 479.467C482.467 434.8 426.733 407.6 365.8 401.334C345.667 399.334 247.267 399.867 228.733 402.134ZM363.667 441.334C452.067 451.467 526.2 513.734 550.867 598.8C554.867 612.267 559 633.2 559 639.467V642.667H300.333H41.6666V638.8C41.6666 631.6 47.1333 606.534 51.5333 592.8C66.0666 548.534 93.8 510.4 131.933 482C145.533 471.867 175.667 456.4 193 450.8C206.2 446.4 221.8 443.067 235.933 441.467C249.533 439.867 349.8 439.867 363.667 441.334Z" fill="currentColor"></path>
  </symbol>
  <symbol fill="none" xmlns="http://www.w3.org/2000/svg" viewBox="0 0 760 613" id="tw-icon">
    <path d="M760 70.2396C731.26 83.0104 702.521 89.3958 670.588 95.7812C702.521 76.625 728.067 44.6979 737.647 9.57812C708.908 28.7344 673.781 41.5052 638.655 47.8906C609.916 19.1562 571.597 0 526.891 0C440.672 0 370.42 70.2396 370.42 156.443C370.42 169.214 370.42 181.984 373.613 191.562C245.882 185.177 130.924 124.516 54.2857 28.7344C38.3193 47.8906 31.9328 73.4323 31.9328 102.167C31.9328 156.443 60.6723 204.333 102.185 229.875C76.6386 229.875 54.2857 223.49 31.9328 210.719V213.911C31.9328 290.536 86.2185 351.198 156.471 367.161C143.697 370.354 130.924 373.547 114.958 373.547C105.378 373.547 95.7983 373.547 86.2185 370.354C105.378 431.016 162.857 475.714 229.916 478.906C175.63 520.411 108.571 545.953 38.3193 545.953C25.5462 545.953 12.7731 545.953 0 542.76C70.2521 587.458 150.084 613 236.303 613C520.504 613 676.975 376.74 676.975 172.406C676.975 166.021 676.975 159.635 676.975 153.25C712.101 127.708 734.454 98.9739 760 70.2396Z" fill="currentColor"></path>
  </symbol>
  <symbol fill="none" xmlns="http://www.w3.org/2000/svg" viewBox="0 0 613 613" id="in-icon">
    <path d="M613 613V390.091C613 281.169 590.202 195.046 461.017 195.046C400.223 195.046 357.161 227.975 341.963 260.905H339.43V205.178H217.843V613H344.496V410.355C344.496 357.161 354.628 306.5 420.488 306.5C486.347 306.5 486.347 367.293 486.347 415.422V613H613Z" fill="currentColor"></path>
    <path d="M10.1316 205.178H136.784V613H10.1316V205.178Z" fill="currentColor"></path>
    <path d="M73.4587 0C32.9297 0 0 32.9297 0 73.4587C0 113.988 32.9297 146.917 73.4587 146.917C113.988 146.917 146.917 113.988 146.917 73.4587C146.917 32.9297 113.988 0 73.4587 0Z" fill="currentColor"></path>
  </symbol>
  <symbol fill="none" xmlns="http://www.w3.org/2000/svg" viewBox="0 0 801 560" id="email-icon">
    <path d="M5.02656 77.0938L351.359 352.947C353.827 355.027 376.08 373.333 400 373.333C424.027 373.333 446.48 355.706 448.894 353.747L794.987 77.0797C798.161 74.5469 800 70.7203 800 66.6672C800 29.9063 770.094 0 733.333 0H66.6672C29.9062 0 0 29.9063 0 66.6672C0 70.7328 1.85313 74.5594 5.02656 77.0938ZM66.6672 26.6672H733.334C753.334 26.6672 769.961 41.4266 772.881 60.6141L432.186 332.959C427.439 336.772 412.386 346.666 400 346.666C387.986 346.666 373.267 336.506 368.306 332.345L27.1203 60.6C30.0531 41.4141 46.6672 26.6672 66.6672 26.6672Z" fill="currentColor"></path>
    <path d="M245.094 309.52L58.4264 456.186C52.6404 460.733 51.6404 469.119 56.1858 474.906C58.8123 478.253 62.7186 480 66.6654 480C69.5592 480 72.4654 479.067 74.9061 477.147L261.573 330.48C267.359 325.933 268.361 317.547 263.814 311.76C259.267 305.96 250.88 304.974 245.094 309.52Z" fill="currentColor"></path>
    <path d="M554.906 309.52C549.12 304.974 540.733 305.974 536.186 311.761C531.639 317.549 532.639 325.934 538.427 330.481L725.094 477.148C727.534 479.069 730.441 480.002 733.32 480.002C737.267 480.002 741.187 478.255 743.814 474.908C748.361 469.122 747.361 460.734 741.573 456.188L554.906 309.52Z" fill="currentColor"></path>
    <path d="M786.667 120C779.308 120 773.334 125.973 773.334 133.333V493.333C773.334 515.386 755.388 533.333 733.334 533.333H66.6672C44.6141 533.333 26.6672 515.386 26.6672 493.333V133.333C26.6672 125.973 20.6938 120 13.3344 120C5.975 120 0 125.973 0 133.333V493.333C0 530.094 29.9062 560 66.6672 560H733.334C770.094 560 800.002 530.094 800.002 493.333V133.333C800 125.973 794.027 120 786.667 120Z" fill="currentColor"></path>
  </symbol>
</svg>
